<mxfile host="app.diagrams.net" modified="2023-03-25T13:28:06.983Z" agent="Mozilla/5.0 (Windows NT 10.0; Win64; x64) AppleWebKit/537.36 (KHTML, like Gecko) Chrome/111.0.0.0 Safari/537.36" etag="140XDQdz6SkeY3uamYGN" version="21.1.1" type="device">
  <diagram name="Page-1" id="sGzxX93xdV-w-MH2Fxeq">
    <mxGraphModel dx="781" dy="376" grid="1" gridSize="10" guides="1" tooltips="1" connect="1" arrows="1" fold="1" page="1" pageScale="1" pageWidth="850" pageHeight="1100" math="0" shadow="0">
      <root>
        <mxCell id="0" />
        <mxCell id="1" parent="0" />
        <mxCell id="4WGJ3wxzGURj5zULlZlS-76" style="edgeStyle=orthogonalEdgeStyle;rounded=0;orthogonalLoop=1;jettySize=auto;html=1;dashed=1;curved=1;endArrow=block;endFill=1;exitX=0.875;exitY=0.5;exitDx=0;exitDy=0;exitPerimeter=0;" parent="1" source="4WGJ3wxzGURj5zULlZlS-74" target="4WGJ3wxzGURj5zULlZlS-72" edge="1">
          <mxGeometry relative="1" as="geometry">
            <Array as="points">
              <mxPoint x="175" y="260" />
              <mxPoint x="240" y="260" />
            </Array>
          </mxGeometry>
        </mxCell>
        <mxCell id="4WGJ3wxzGURj5zULlZlS-74" value="" style="ellipse;shape=cloud;whiteSpace=wrap;html=1;" parent="1" vertex="1">
          <mxGeometry y="170" width="200" height="230" as="geometry" />
        </mxCell>
        <mxCell id="yOPJ3_DFCxdG4kGyphRr-12" style="edgeStyle=orthogonalEdgeStyle;rounded=0;orthogonalLoop=1;jettySize=auto;html=1;exitX=1;exitY=0.5;exitDx=0;exitDy=0;entryX=0;entryY=0.5;entryDx=0;entryDy=0;" edge="1" parent="1" source="4WGJ3wxzGURj5zULlZlS-6" target="4WGJ3wxzGURj5zULlZlS-57">
          <mxGeometry relative="1" as="geometry" />
        </mxCell>
        <mxCell id="yOPJ3_DFCxdG4kGyphRr-16" style="edgeStyle=orthogonalEdgeStyle;rounded=0;orthogonalLoop=1;jettySize=auto;html=1;exitX=0.75;exitY=1;exitDx=0;exitDy=0;entryX=0.673;entryY=0.018;entryDx=0;entryDy=0;entryPerimeter=0;" edge="1" parent="1" source="4WGJ3wxzGURj5zULlZlS-6" target="4WGJ3wxzGURj5zULlZlS-72">
          <mxGeometry relative="1" as="geometry">
            <mxPoint x="289.58823529411757" y="290" as="targetPoint" />
          </mxGeometry>
        </mxCell>
        <mxCell id="4WGJ3wxzGURj5zULlZlS-6" value="ExternalServices" style="html=1;whiteSpace=wrap;fillColor=#dae8fc;strokeColor=#6c8ebf;strokeWidth=2;" parent="1" vertex="1">
          <mxGeometry x="200" y="110" width="120" height="60" as="geometry" />
        </mxCell>
        <mxCell id="yOPJ3_DFCxdG4kGyphRr-10" style="edgeStyle=orthogonalEdgeStyle;rounded=0;orthogonalLoop=1;jettySize=auto;html=1;exitX=0.5;exitY=1;exitDx=0;exitDy=0;entryX=0.5;entryY=0;entryDx=0;entryDy=0;" edge="1" parent="1" source="4WGJ3wxzGURj5zULlZlS-12" target="yOPJ3_DFCxdG4kGyphRr-2">
          <mxGeometry relative="1" as="geometry" />
        </mxCell>
        <mxCell id="4WGJ3wxzGURj5zULlZlS-12" value="OrderDTO" style="html=1;whiteSpace=wrap;fillColor=#ffe6cc;strokeColor=#d79b00;" parent="1" vertex="1">
          <mxGeometry x="640" y="200" width="120" height="60" as="geometry" />
        </mxCell>
        <mxCell id="4WGJ3wxzGURj5zULlZlS-18" value="ExternalServiceContactDTO" style="html=1;whiteSpace=wrap;fillColor=#dae8fc;strokeColor=#6c8ebf;" parent="1" vertex="1">
          <mxGeometry x="620" y="110" width="160" height="60" as="geometry" />
        </mxCell>
        <mxCell id="4WGJ3wxzGURj5zULlZlS-20" value="NotificationDTO" style="html=1;whiteSpace=wrap;fillColor=#e1d5e7;strokeColor=#9673a6;" parent="1" vertex="1">
          <mxGeometry x="640" y="480" width="120" height="60" as="geometry" />
        </mxCell>
        <mxCell id="4WGJ3wxzGURj5zULlZlS-24" value="Models" style="shape=umlFrame;whiteSpace=wrap;html=1;pointerEvents=0;width=80;height=20;" parent="1" vertex="1">
          <mxGeometry x="590" y="40" width="200" height="520" as="geometry" />
        </mxCell>
        <mxCell id="4WGJ3wxzGURj5zULlZlS-25" value="Controllers" style="shape=umlFrame;whiteSpace=wrap;html=1;pointerEvents=0;width=80;height=20;" parent="1" vertex="1">
          <mxGeometry x="370" y="40" width="200" height="520" as="geometry" />
        </mxCell>
        <mxCell id="yOPJ3_DFCxdG4kGyphRr-11" style="edgeStyle=orthogonalEdgeStyle;rounded=0;orthogonalLoop=1;jettySize=auto;html=1;exitX=1;exitY=0.5;exitDx=0;exitDy=0;entryX=0;entryY=0.5;entryDx=0;entryDy=0;" edge="1" parent="1" source="4WGJ3wxzGURj5zULlZlS-26" target="4WGJ3wxzGURj5zULlZlS-12">
          <mxGeometry relative="1" as="geometry">
            <Array as="points">
              <mxPoint x="620" y="330" />
              <mxPoint x="620" y="230" />
            </Array>
          </mxGeometry>
        </mxCell>
        <mxCell id="4WGJ3wxzGURj5zULlZlS-26" value="OrderController" style="html=1;whiteSpace=wrap;fillColor=#ffe6cc;strokeColor=#d79b00;" parent="1" vertex="1">
          <mxGeometry x="425" y="300" width="120" height="60" as="geometry" />
        </mxCell>
        <mxCell id="yOPJ3_DFCxdG4kGyphRr-19" style="edgeStyle=orthogonalEdgeStyle;rounded=0;orthogonalLoop=1;jettySize=auto;html=1;exitX=1;exitY=0.5;exitDx=0;exitDy=0;entryX=0;entryY=0.5;entryDx=0;entryDy=0;" edge="1" parent="1" source="4WGJ3wxzGURj5zULlZlS-34" target="4WGJ3wxzGURj5zULlZlS-20">
          <mxGeometry relative="1" as="geometry" />
        </mxCell>
        <mxCell id="4WGJ3wxzGURj5zULlZlS-34" value="NotificationController" style="html=1;whiteSpace=wrap;fillColor=#e1d5e7;strokeColor=#9673a6;" parent="1" vertex="1">
          <mxGeometry x="415" y="480" width="140" height="60" as="geometry" />
        </mxCell>
        <mxCell id="yOPJ3_DFCxdG4kGyphRr-13" style="edgeStyle=orthogonalEdgeStyle;rounded=0;orthogonalLoop=1;jettySize=auto;html=1;exitX=1;exitY=0.5;exitDx=0;exitDy=0;entryX=0;entryY=0.5;entryDx=0;entryDy=0;" edge="1" parent="1" source="4WGJ3wxzGURj5zULlZlS-57" target="4WGJ3wxzGURj5zULlZlS-18">
          <mxGeometry relative="1" as="geometry" />
        </mxCell>
        <mxCell id="4WGJ3wxzGURj5zULlZlS-57" value="ExternalServices&lt;br&gt;Controler" style="html=1;whiteSpace=wrap;fillColor=#dae8fc;strokeColor=#6c8ebf;" parent="1" vertex="1">
          <mxGeometry x="405" y="110" width="140" height="60" as="geometry" />
        </mxCell>
        <mxCell id="4WGJ3wxzGURj5zULlZlS-70" value="Gateway" style="ellipse;whiteSpace=wrap;html=1;dashed=1;fillColor=#f5f5f5;fontColor=#333333;strokeColor=#666666;" parent="1" vertex="1">
          <mxGeometry x="50" y="230" width="90" height="50" as="geometry" />
        </mxCell>
        <mxCell id="4WGJ3wxzGURj5zULlZlS-71" value="Other Services" style="ellipse;whiteSpace=wrap;html=1;dashed=1;fillColor=#f5f5f5;fontColor=#333333;strokeColor=#666666;" parent="1" vertex="1">
          <mxGeometry x="80" y="300" width="90" height="50" as="geometry" />
        </mxCell>
        <mxCell id="4WGJ3wxzGURj5zULlZlS-73" style="edgeStyle=orthogonalEdgeStyle;rounded=0;orthogonalLoop=1;jettySize=auto;html=1;endArrow=block;endFill=1;" parent="1" source="4WGJ3wxzGURj5zULlZlS-72" target="4WGJ3wxzGURj5zULlZlS-26" edge="1">
          <mxGeometry relative="1" as="geometry" />
        </mxCell>
        <mxCell id="yOPJ3_DFCxdG4kGyphRr-15" style="edgeStyle=orthogonalEdgeStyle;rounded=0;orthogonalLoop=1;jettySize=auto;html=1;exitX=0.5;exitY=0;exitDx=0;exitDy=0;entryX=0.5;entryY=1;entryDx=0;entryDy=0;" edge="1" parent="1" source="4WGJ3wxzGURj5zULlZlS-72" target="4WGJ3wxzGURj5zULlZlS-6">
          <mxGeometry relative="1" as="geometry">
            <mxPoint x="272" y="160" as="targetPoint" />
            <Array as="points">
              <mxPoint x="260" y="300" />
            </Array>
          </mxGeometry>
        </mxCell>
        <mxCell id="yOPJ3_DFCxdG4kGyphRr-20" style="edgeStyle=orthogonalEdgeStyle;rounded=0;orthogonalLoop=1;jettySize=auto;html=1;exitX=0.5;exitY=1;exitDx=0;exitDy=0;entryX=0.5;entryY=0;entryDx=0;entryDy=0;" edge="1" parent="1" source="4WGJ3wxzGURj5zULlZlS-72" target="yOPJ3_DFCxdG4kGyphRr-8">
          <mxGeometry relative="1" as="geometry" />
        </mxCell>
        <mxCell id="4WGJ3wxzGURj5zULlZlS-72" value="OrderService" style="html=1;whiteSpace=wrap;fillColor=#fad7ac;strokeColor=#b46504;strokeWidth=2;" parent="1" vertex="1">
          <mxGeometry x="210" y="300" width="120" height="60" as="geometry" />
        </mxCell>
        <mxCell id="yOPJ3_DFCxdG4kGyphRr-5" style="edgeStyle=orthogonalEdgeStyle;rounded=0;orthogonalLoop=1;jettySize=auto;html=1;exitX=0.5;exitY=1;exitDx=0;exitDy=0;" edge="1" parent="1" source="yOPJ3_DFCxdG4kGyphRr-2" target="yOPJ3_DFCxdG4kGyphRr-4">
          <mxGeometry relative="1" as="geometry" />
        </mxCell>
        <mxCell id="yOPJ3_DFCxdG4kGyphRr-2" value="OrderBasketDTO" style="html=1;whiteSpace=wrap;fillColor=#ffe6cc;strokeColor=#d79b00;" vertex="1" parent="1">
          <mxGeometry x="640" y="290" width="120" height="60" as="geometry" />
        </mxCell>
        <mxCell id="yOPJ3_DFCxdG4kGyphRr-4" value="OrderItemDTO" style="html=1;whiteSpace=wrap;fillColor=#ffe6cc;strokeColor=#d79b00;" vertex="1" parent="1">
          <mxGeometry x="640" y="380" width="120" height="60" as="geometry" />
        </mxCell>
        <mxCell id="yOPJ3_DFCxdG4kGyphRr-17" style="edgeStyle=orthogonalEdgeStyle;rounded=0;orthogonalLoop=1;jettySize=auto;html=1;exitX=1;exitY=0.5;exitDx=0;exitDy=0;" edge="1" parent="1" source="yOPJ3_DFCxdG4kGyphRr-8" target="4WGJ3wxzGURj5zULlZlS-34">
          <mxGeometry relative="1" as="geometry" />
        </mxCell>
        <mxCell id="yOPJ3_DFCxdG4kGyphRr-8" value="NotificationService" style="html=1;whiteSpace=wrap;fillColor=#e1d5e7;strokeColor=#9673a6;strokeWidth=2;" vertex="1" parent="1">
          <mxGeometry x="200" y="480" width="140" height="60" as="geometry" />
        </mxCell>
        <mxCell id="yOPJ3_DFCxdG4kGyphRr-14" style="edgeStyle=orthogonalEdgeStyle;rounded=0;orthogonalLoop=1;jettySize=auto;html=1;dashed=1;curved=1;endArrow=block;endFill=1;exitX=0.794;exitY=0.179;exitDx=0;exitDy=0;exitPerimeter=0;entryX=0;entryY=0.5;entryDx=0;entryDy=0;" edge="1" parent="1" source="4WGJ3wxzGURj5zULlZlS-74" target="4WGJ3wxzGURj5zULlZlS-6">
          <mxGeometry relative="1" as="geometry">
            <Array as="points">
              <mxPoint x="150" y="211" />
              <mxPoint x="150" y="140" />
            </Array>
            <mxPoint x="185" y="364" as="sourcePoint" />
            <mxPoint x="250" y="370" as="targetPoint" />
          </mxGeometry>
        </mxCell>
        <mxCell id="yOPJ3_DFCxdG4kGyphRr-18" style="edgeStyle=orthogonalEdgeStyle;rounded=0;orthogonalLoop=1;jettySize=auto;html=1;dashed=1;curved=1;endArrow=block;endFill=1;exitX=0.659;exitY=0.945;exitDx=0;exitDy=0;exitPerimeter=0;entryX=0.25;entryY=0;entryDx=0;entryDy=0;" edge="1" parent="1" source="4WGJ3wxzGURj5zULlZlS-74" target="yOPJ3_DFCxdG4kGyphRr-8">
          <mxGeometry relative="1" as="geometry">
            <Array as="points">
              <mxPoint x="132" y="410" />
              <mxPoint x="235" y="410" />
            </Array>
            <mxPoint x="170" y="435" as="sourcePoint" />
            <mxPoint x="235" y="450" as="targetPoint" />
          </mxGeometry>
        </mxCell>
      </root>
    </mxGraphModel>
  </diagram>
</mxfile>
